<svg width="61" height="71" viewBox="0 0 61 71" fill="none" xmlns="http://www.w3.org/2000/svg">
<path d="M20.9731 31.3095H10.2588V21.4657C10.2588 10.0087 19.3927 0.684448 30.6159 0.684448C41.8391 0.684448 50.9731 10.0087 50.9731 21.4657V31.3095H40.2588V21.4657C40.2588 18.855 39.2428 16.3512 37.4345 14.5051C35.6261 12.6591 33.1734 11.6219 30.6159 11.6219C28.0585 11.6219 25.6058 12.6591 23.7974 14.5051C21.989 16.3512 20.9731 18.855 20.9731 21.4657V31.3095Z" fill="#E2EAF3"/>
<path d="M51.2654 31.3094H9.96618C8.47256 31.3094 7.04011 32.0009 5.98396 33.2316C4.92781 34.4623 4.33447 36.1315 4.33447 37.8719L4.33447 64.1219C4.33447 65.8624 4.92781 67.5316 5.98396 68.7623C7.04011 69.993 8.47256 70.6844 9.96618 70.6844H51.2654C52.759 70.6844 54.1915 69.993 55.2476 68.7623C56.3038 67.5316 56.8971 65.8624 56.8971 64.1219V37.8719C56.8971 36.1315 56.3038 34.4623 55.2476 33.2316C54.1915 32.0009 52.759 31.3094 51.2654 31.3094ZM35.3089 54.1415C35.3089 55.5919 34.8144 56.9829 33.9343 58.0085C33.0542 59.0341 31.8605 59.6102 30.6158 59.6102C29.3711 59.6102 28.1774 59.0341 27.2973 58.0085C26.4171 56.9829 25.9227 55.5919 25.9227 54.1415V47.579C25.9227 46.1286 26.4171 44.7376 27.2973 43.712C28.1774 42.6864 29.3711 42.1102 30.6158 42.1102C31.8605 42.1102 33.0542 42.6864 33.9343 43.712C34.8144 44.7376 35.3089 46.1286 35.3089 47.579V54.1415Z" fill="#C1D2E9"/>
</svg>
