<svg width="154" height="100" viewBox="0 0 154 100" fill="none" xmlns="http://www.w3.org/2000/svg">
<path d="M53.9684 99.2888H30.1455V29.1993H39.8628L57.103 46.4859V96.1458C57.103 97.8745 55.6925 99.2888 53.9684 99.2888Z" fill="#C1D2E9"/>
<path d="M30.1455 99.2893H6.32258C4.59856 99.2893 3.18799 97.8749 3.18799 96.1463V32.3428C3.18799 30.6141 4.59856 29.1998 6.32258 29.1998H30.1455V99.2893Z" fill="#E2EAF3"/>
<path d="M57.1031 46.4859H42.9974C41.2734 46.4859 39.8628 45.0716 39.8628 43.3429V29.1993L57.1031 46.4859Z" fill="#88A3C9"/>
<path d="M15.2257 65.126H18.5017C19.2951 65.126 20.0464 65.2147 20.7557 65.392C21.4744 65.5694 22.0997 65.8587 22.6317 66.26C23.1637 66.652 23.5837 67.1654 23.8917 67.8C24.2091 68.4347 24.3677 69.2047 24.3677 70.11C24.3677 70.9127 24.2137 71.622 23.9057 72.238C23.6071 72.8447 23.2011 73.358 22.6877 73.778C22.1744 74.1887 21.5817 74.5014 20.9097 74.716C20.2377 74.9307 19.5331 75.038 18.7957 75.038H15.2257V65.126ZM17.4097 73.022H18.5437C19.0477 73.022 19.5144 72.9707 19.9437 72.868C20.3824 72.7654 20.7604 72.5974 21.0777 72.364C21.3951 72.1214 21.6424 71.8087 21.8197 71.426C22.0064 71.034 22.0997 70.558 22.0997 69.998C22.0997 69.5127 22.0064 69.0927 21.8197 68.738C21.6424 68.374 21.3997 68.0754 21.0917 67.842C20.7837 67.6087 20.4197 67.436 19.9997 67.324C19.5891 67.2027 19.1551 67.142 18.6977 67.142H17.4097V73.022ZM25.3168 70.082C25.3168 69.2887 25.4474 68.57 25.7088 67.926C25.9794 67.282 26.3528 66.736 26.8288 66.288C27.3048 65.8307 27.8694 65.4807 28.5228 65.238C29.1761 64.9954 29.8901 64.874 30.6648 64.874C31.4394 64.874 32.1534 64.9954 32.8068 65.238C33.4601 65.4807 34.0248 65.8307 34.5008 66.288C34.9768 66.736 35.3454 67.282 35.6068 67.926C35.8774 68.57 36.0128 69.2887 36.0128 70.082C36.0128 70.8754 35.8774 71.594 35.6068 72.238C35.3454 72.882 34.9768 73.4327 34.5008 73.89C34.0248 74.338 33.4601 74.6834 32.8068 74.926C32.1534 75.1687 31.4394 75.29 30.6648 75.29C29.8901 75.29 29.1761 75.1687 28.5228 74.926C27.8694 74.6834 27.3048 74.338 26.8288 73.89C26.3528 73.4327 25.9794 72.882 25.7088 72.238C25.4474 71.594 25.3168 70.8754 25.3168 70.082ZM27.5848 70.082C27.5848 70.5487 27.6548 70.978 27.7948 71.37C27.9441 71.7527 28.1541 72.0887 28.4248 72.378C28.6954 72.658 29.0174 72.8774 29.3908 73.036C29.7734 73.1947 30.1981 73.274 30.6648 73.274C31.1314 73.274 31.5514 73.1947 31.9248 73.036C32.3074 72.8774 32.6341 72.658 32.9048 72.378C33.1754 72.0887 33.3808 71.7527 33.5208 71.37C33.6701 70.978 33.7448 70.5487 33.7448 70.082C33.7448 69.6247 33.6701 69.2 33.5208 68.808C33.3808 68.416 33.1754 68.08 32.9048 67.8C32.6341 67.5107 32.3074 67.2867 31.9248 67.128C31.5514 66.9694 31.1314 66.89 30.6648 66.89C30.1981 66.89 29.7734 66.9694 29.3908 67.128C29.0174 67.2867 28.6954 67.5107 28.4248 67.8C28.1541 68.08 27.9441 68.416 27.7948 68.808C27.6548 69.2 27.5848 69.6247 27.5848 70.082ZM43.9792 67.702C43.7645 67.4407 43.4985 67.24 43.1812 67.1C42.8732 66.96 42.5139 66.89 42.1032 66.89C41.6925 66.89 41.3099 66.9694 40.9552 67.128C40.6099 67.2867 40.3065 67.5107 40.0452 67.8C39.7932 68.08 39.5925 68.416 39.4432 68.808C39.3032 69.2 39.2332 69.6247 39.2332 70.082C39.2332 70.5487 39.3032 70.978 39.4432 71.37C39.5925 71.7527 39.7932 72.0887 40.0452 72.378C40.2972 72.658 40.5912 72.8774 40.9272 73.036C41.2725 73.1947 41.6412 73.274 42.0332 73.274C42.4812 73.274 42.8779 73.1807 43.2232 72.994C43.5685 72.8074 43.8532 72.546 44.0772 72.21L45.8972 73.568C45.4772 74.156 44.9452 74.59 44.3012 74.87C43.6572 75.15 42.9945 75.29 42.3132 75.29C41.5385 75.29 40.8245 75.1687 40.1712 74.926C39.5179 74.6834 38.9532 74.338 38.4772 73.89C38.0012 73.4327 37.6279 72.882 37.3572 72.238C37.0959 71.594 36.9652 70.8754 36.9652 70.082C36.9652 69.2887 37.0959 68.57 37.3572 67.926C37.6279 67.282 38.0012 66.736 38.4772 66.288C38.9532 65.8307 39.5179 65.4807 40.1712 65.238C40.8245 64.9954 41.5385 64.874 42.3132 64.874C42.5932 64.874 42.8825 64.902 43.1812 64.958C43.4892 65.0047 43.7879 65.084 44.0772 65.196C44.3759 65.308 44.6605 65.4574 44.9312 65.644C45.2019 65.8307 45.4445 66.0594 45.6592 66.33L43.9792 67.702Z" fill="white"/>
<rect x="45.6689" y="0.894043" width="108" height="27" rx="9" fill="#D9EEFD"/>
<path d="M57.1689 17.4331H75.9516V27.7635H64.682L57.1689 36.2157V17.4331Z" fill="#D9EEFD"/>
<path d="M59.3166 11.5916H60.2166V17.8916H59.3166V11.5916ZM67.5207 11.5916V17.8916H66.7827L63.0027 13.1936V17.8916H62.1027V11.5916H62.8407L66.6207 16.2896V11.5916H67.5207ZM71.8234 11.5916H74.4784C75.1444 11.5916 75.7354 11.7236 76.2514 11.9876C76.7674 12.2516 77.1664 12.6236 77.4484 13.1036C77.7364 13.5776 77.8804 14.1236 77.8804 14.7416C77.8804 15.3596 77.7364 15.9086 77.4484 16.3886C77.1664 16.8626 76.7674 17.2316 76.2514 17.4956C75.7354 17.7596 75.1444 17.8916 74.4784 17.8916H71.8234V11.5916ZM74.4244 17.1086C74.9344 17.1086 75.3814 17.0096 75.7654 16.8116C76.1554 16.6136 76.4554 16.3376 76.6654 15.9836C76.8754 15.6236 76.9804 15.2096 76.9804 14.7416C76.9804 14.2736 76.8754 13.8626 76.6654 13.5086C76.4554 13.1486 76.1554 12.8696 75.7654 12.6716C75.3814 12.4736 74.9344 12.3746 74.4244 12.3746H72.7234V17.1086H74.4244ZM83.831 17.1086V17.8916H79.259V11.5916H83.705V12.3746H80.159V14.3096H83.318V15.0746H80.159V17.1086H83.831ZM90.6724 11.5916L87.9094 17.8916H87.0184L84.2464 11.5916H85.2184L87.4864 16.7666L89.7724 11.5916H90.6724ZM96.0478 17.1086V17.8916H91.4758V11.5916H95.9218V12.3746H92.3758V14.3096H95.5348V15.0746H92.3758V17.1086H96.0478ZM97.5051 11.5916H98.4051V17.1086H101.816V17.8916H97.5051V11.5916ZM105.579 17.9636C104.943 17.9636 104.37 17.8256 103.86 17.5496C103.35 17.2676 102.948 16.8806 102.654 16.3886C102.366 15.8966 102.222 15.3476 102.222 14.7416C102.222 14.1356 102.366 13.5866 102.654 13.0946C102.948 12.6026 103.35 12.2186 103.86 11.9426C104.37 11.6606 104.943 11.5196 105.579 11.5196C106.209 11.5196 106.779 11.6606 107.289 11.9426C107.799 12.2186 108.198 12.6026 108.486 13.0946C108.774 13.5806 108.918 14.1296 108.918 14.7416C108.918 15.3536 108.774 15.9056 108.486 16.3976C108.198 16.8836 107.799 17.2676 107.289 17.5496C106.779 17.8256 106.209 17.9636 105.579 17.9636ZM105.579 17.1626C106.041 17.1626 106.455 17.0576 106.821 16.8476C107.193 16.6376 107.484 16.3496 107.694 15.9836C107.91 15.6116 108.018 15.1976 108.018 14.7416C108.018 14.2856 107.91 13.8746 107.694 13.5086C107.484 13.1366 107.193 12.8456 106.821 12.6356C106.455 12.4256 106.041 12.3206 105.579 12.3206C105.117 12.3206 104.697 12.4256 104.319 12.6356C103.947 12.8456 103.653 13.1366 103.437 13.5086C103.227 13.8746 103.122 14.2856 103.122 14.7416C103.122 15.1976 103.227 15.6116 103.437 15.9836C103.653 16.3496 103.947 16.6376 104.319 16.8476C104.697 17.0576 105.117 17.1626 105.579 17.1626ZM112.75 11.5916C113.566 11.5916 114.208 11.7866 114.676 12.1766C115.144 12.5666 115.378 13.1036 115.378 13.7876C115.378 14.4716 115.144 15.0086 114.676 15.3986C114.208 15.7886 113.566 15.9836 112.75 15.9836H111.193V17.8916H110.293V11.5916H112.75ZM112.723 15.2006C113.293 15.2006 113.728 15.0806 114.028 14.8406C114.328 14.5946 114.478 14.2436 114.478 13.7876C114.478 13.3316 114.328 12.9836 114.028 12.7436C113.728 12.4976 113.293 12.3746 112.723 12.3746H111.193V15.2006H112.723ZM122.541 17.8916L122.532 13.3016L120.255 17.1266H119.841L117.564 13.3286V17.8916H116.7V11.5916H117.438L120.066 16.0196L122.658 11.5916H123.396L123.405 17.8916H122.541ZM129.868 17.1086V17.8916H125.296V11.5916H129.742V12.3746H126.196V14.3096H129.355V15.0746H126.196V17.1086H129.868ZM136.743 11.5916V17.8916H136.005L132.225 13.1936V17.8916H131.325V11.5916H132.063L135.843 16.2896V11.5916H136.743ZM139.88 12.3746H137.72V11.5916H142.931V12.3746H140.771V17.8916H139.88V12.3746Z" fill="#43637C"/>
</svg>
