<svg width="60" height="72" viewBox="0 0 60 72" fill="none" xmlns="http://www.w3.org/2000/svg">
<path d="M59 60.531C59 61.6017 58.3951 62.7568 56.9973 63.937C55.6041 65.1133 53.5288 66.2177 50.8769 67.1647C45.5817 69.0557 38.2007 70.2443 30 70.2443C21.7993 70.2443 14.4183 69.0557 9.1231 67.1647C6.47114 66.2177 4.39586 65.1133 3.00266 63.937C1.60482 62.7568 1 61.6017 1 60.531C1 59.4604 1.60482 58.3052 3.00266 57.125C4.39586 55.9487 6.47114 54.8444 9.1231 53.8973C14.4183 52.0064 21.7993 50.8177 30 50.8177C38.2007 50.8177 45.5817 52.0064 50.8769 53.8973C53.5288 54.8444 55.6041 55.9487 56.9973 57.125C58.3951 58.3052 59 59.4604 59 60.531Z" stroke="#88A3C9" stroke-width="2"/>
<ellipse cx="28.6317" cy="60.8511" rx="13.1132" ry="5.05635" fill="#88A3C9"/>
<path d="M43.4048 7.31007C34.9888 -1.10596 21.3441 -1.10596 12.9281 7.31007C5.96827 14.2699 4.60844 25.0612 9.62413 33.5301L28.1664 64.8386L46.7088 33.5301C51.7244 25.0612 50.3646 14.2701 43.4048 7.31007Z" fill="#E2EAF3"/>
<path d="M43.4049 7.31031C39.197 3.10242 33.6816 0.998474 28.1665 0.998474C28.1665 4.17453 28.1665 64.8391 28.1665 64.8391L46.7088 33.5306C51.7245 25.0614 50.3647 14.2704 43.4049 7.31031Z" fill="#C1D2E9"/>
<path d="M28.1664 29.6659C24.2422 29.6659 21.0498 26.4732 21.0498 22.549C21.0498 18.6249 24.2422 15.4324 28.1664 15.4324C32.0906 15.4324 35.283 18.6251 35.283 22.549C35.283 26.4732 32.0906 29.6659 28.1664 29.6659Z" fill="#C1D2E9"/>
<path d="M28.1665 29.6659V15.4324C32.0907 15.4324 35.2831 18.6251 35.2831 22.549C35.2831 26.4732 32.0907 29.6659 28.1665 29.6659Z" fill="#88A3C9"/>
</svg>
